<svg xmlns="http://www.w3.org/2000/svg" viewBox="0 0 64 64">
  <defs>
    <linearGradient id="pin" x1="0" x2="1" y1="0" y2="1">
      <stop offset="0" stop-color="#0ea5e9" />
      <stop offset="1" stop-color="#0369a1" />
    </linearGradient>
  </defs>
  <path
    fill="url(#pin)"
    d="M32 4C20.4 4 11 13.4 11 25c0 14.3 18.1 33 20.1 35a1.3 1.3 0 0 0 1.8 0C34.9 58 53 39.3 53 25 53 13.4 43.6 4 32 4Z"
  />
  <circle cx="32" cy="25" r="11" fill="#f8fafc" />
  <path
    fill="#0f172a"
    d="M35.2 31.5h-6.4v-2.2h4.2v-2.1h-3.3v-2.1h5.5v6.4Zm-3.2-13.1a6.6 6.6 0 1 0 0 13.2 6.6 6.6 0 0 0 0-13.2Z"
  />
</svg>
